<mxfile host="app.diagrams.net" modified="2023-08-06T08:07:23.335Z" agent="Mozilla/5.0 (Windows NT 10.0; Win64; x64) AppleWebKit/537.36 (KHTML, like Gecko) Chrome/115.0.0.0 Safari/537.36 Edg/115.0.1901.188" etag="gkKVOe1SUwTxqYkYYhf3" version="21.6.6" type="github">
  <diagram name="第 1 页" id="kCVcUnSP00wO-4VVgKhI">
    <mxGraphModel dx="1221" dy="775" grid="1" gridSize="10" guides="1" tooltips="1" connect="1" arrows="1" fold="1" page="1" pageScale="1" pageWidth="827" pageHeight="1169" math="0" shadow="0">
      <root>
        <mxCell id="0" />
        <mxCell id="1" parent="0" />
        <mxCell id="hDusynISHGRhXIebrJSK-1" value="" style="shape=image;verticalLabelPosition=bottom;labelBackgroundColor=default;verticalAlign=top;aspect=fixed;imageAspect=0;image=data:image/png,iVBORw0KGgoAAAANSUhEUgAAAHQAAAB0CAYAAABUmhYnAAAAAXNSR0IArs4c6QAAAARnQU1BAACxjwv8YQUAAAAJcEhZcwAAEnQAABJ0Ad5mH3gAACT3SURBVHhe7d0DlPTM1jbgY9u2bdu2bdu2bdu2bdu2bZ+T/7v67d3nnpoknZ7JvP+3vvXea9Uzz3QnqaR21ca9d2X21+2H/1PYM4H+85//7D760Y92T33qU7sHPvCB3UMf+tDuhS98Yfftb397ecTe4w9/+EP3pje9qXvMYx7TPeABD1j89LvP9y143he96EWL5zcOxuMjH/lI949//GN5xLzYE4F+4xvf6G5xi1t0JzjBCboDHOAA3f72t79FO/jBD96d6Uxn6h71qEd1f/nLX5ZH7w3e+MY3dpe61KW6Ix7xiKv+Nb9f8pKX7F7/+tcvj9wb/PWvf+0e/ehHd2c+85kXz139G4/jH//43c1vfvPu61//+vLo+TC7QD/zmc905zrXubYMYts81I1vfOPuj3/84/KsefGMZzyjO+Yxj9nbd7WjH/3o3dOe9rTlGfPiT3/6U3eTm9xky2Tua+c85zm7T3/608uz5sGsAv31r3/dXfSiF91y04c5zGG605/+9N1JTnKS7iAHOcjq8wMe8IDdve51r+WZ8+Gd73znNmEe4xjH6M5ylrMsfrafv/3tb1+eOR/uc5/7LJ6v+jnwgQ/cnfjEJ16Mg/HIe7jQhS7U/epXv1qeuXvMKlCqNIV22ctetvvsZz/b/fa3v10I+7Wvfe1CsPU91fOpT31qefbu8Z///Ke79KUvvbr+IQ95yO7e975394Mf/KD73e9+1/3whz/s7ne/+3WHOtShVsdQy//+97+XV9g9aCimpq5PkK961asWQjMOxuPyl7/86nvj9chHPnJ59u4xm0D/9a9/dRe+8IVXN3r2s5+9+9nPfrb89r9429ve1h3pSEdaHXff+953+c3u8cEPfrA73vGOt7ju/ve//+6Od7zj8putuPOd77xSh8c97nG797///ctvdo/73//+i75dm71+61vfuvzmv/jFL36xGJ8agwte8IKzOUmzCfQrX/lKd5rTnGZxg1TM4x73uOU323Gxi11s9TBXvvKVl5/uHmxiOSBHPvKRF85ZH775zW92Rz3qURfHOZ7nOReudrWrrZ7tIhe5yEJr9OEJT3jCYpwcd6pTnar78pe/vPxmd5hNoJ/85CdX6tQgveY1r1l+sx03vOENVw9NLc8FXuWBDnSgxXXZUZ5mH/72t791xz72sRfHsXVzqrzLXe5yq2e7/vWvv/x0O173utd1hzjEIRbHUcsf//jHl9/sDrMJ9Fvf+lZ3hjOcYTVIVE8f2Kvznve8q4e+5jWvufxm93jJS17SHe5wh1tc9whHOMJikvWBZ1lq/7CHPewiTpwL17rWtVbPdu5zn3thivogJi3H6XSnO91Ca8yBWZ2iy1zmMquHOfnJT9597nOfW37zXzz72c9eOCuO4RAI9ucCNV/X1q5xjWssQoiE302iOsYqmfMe0jF0L8985jOX3/wXn//857tTnvKUq3vgmM2FWQVKWIc+9KFXN3rGM56xe9azntV98Ytf7D7xiU8swpR0iE50ohN1X/rSl5Zn7xy0w01vetOF3axrawb2Kle5SveWt7yl++pXv7r46ff0xDXniRvnWCXf+973Fjaxrk1T3POe91yoVM9qPIxLfc/j7hP6TjGrQP/+97931772tVc3q5mlwhM2qx1I9u5Od7pT9+c//3l5hc3ARnJoTnrSk648y7bxZgnshCc84eLnULDvfD7AU57ylF2zWO6p7KPmuT2/cCY1iEZFs+lzYVaBgpV4lKMcZctNt80DlgD8vOUtb9n9/ve/X15hPdjhj33sYwtVddCDHnTb9XfTXA81iIfeSXzqHLFuebBjzQSbyxkqzC7QZEkITniQs9WDigPZ2PpMu8ENbtD95je/WV5lGD/5yU8WsWtytCaFvlp2huo7znGOs/pME3f6PAfceTnJNKoSKaG/qaAxqNeDHexgq+tkMw7GQ19+168+5sSsAuU9Uq/1AAJmK1amo2ynQRNsIwHSMdA4K31kBOB9X/3qVy/I/TzH4AjSUXsVsmjnOMc5ul/+8pcLaq8ETYiIDZ/jUetY5znfOe2KZ+8wPet4Z98jMvIecoJ4fp6/8UD31eeIkDnZslkFmvGlFVQ8KeotQxWzGKib0572tKvPtStd6UqL4wsCc97yjW50o232x2znaCEUOFj1uUH60Ic+tDjfxCkhiY/9Dh/+8Ie3TD421nWsmKMd7WirzzUry7Oh7fqIApSe7Emec6xjHas79alPvRLqec5zntVzveMd79jiHNJOc2E2gb7hDW9YsS/ada973eU3+4BA6jsPV+GEVd2uOuHPd77zncWsF1IIvPN7DWdLODzcs53tbKvPCV3etYDWKxVHFSbNJ/5MXvesZz3rwtM1GZITruY+kBcEWGAmEAh5HHPy0pe+dAsj1gotz+FzzJXOm0WghHOFK1xhdYNSU1/4wheW3+4D8Vl9b3Z+//vfX37TLWiv5DZ5ooR+8YtffIsK0052spN1j3/84xd9Ivwz9tU4JJLrhTGBOo4azPM5Woh010fPtbbevcko0T4//elPt8S0GjPy7ne/e3FvudIf8YhHLHvdB0K5zP4g7OdIJ84i0Oc973lbnAyOUeshGoBKaxlYmZeEldGm3rJRl3KoRVYIkSTR8xhaQVYlMSZQ4F1f73rX23Kdm93sZqtQQn9i1OKIqwlDJK/TTjIfH/jABxbn0Vh1judmuxPGh3NX55q4z3nOc5bf7hy7FqhA+vznP//qxniQufoKvEVOh2MMAk+3hQdsV6TGFqlAIMQCVZzHugf30mKdQMH9XuACF1hdy3Wp1gLh4l6p5DqmbcwGG1u4613vuhI2k9DnLbOpnq2ucb7zna/77ne/u/x2Z9i1QB/72MeubkhTLTCEq1/96qvjOEkFOcQrXvGKC5YpZ3w1Dk85OcDeZNiCEFCn04cpAgVxLYKirilsabUIe0lL9N0j3halVyCc+u6qV73q8tPtwBzldXIi7QS7EqiUGZtWN0NlsitDUChVIYT4EHku05HOlCarT4jJ6hjs97znPQvbfIpTnGL1uYF/2ctetuxhO6YKFF7+8pdvmSj6zBIR6bix8hq+A1spDBHv+szzPvjBD15eYTuEaXyFuoY+d5NK27FAqT9qpW6EDR1LmcG73vWulSNgcOuhs3EqcMImRoZBmsnD0yxBE5RJMoZNBAoPf/jDt8SiVPnPf/7zxURiM+tzapkKbsMuzXPpy/8JWZgyBuq87lFjjtK8bIIdC1QMefjDH351ExySdV4ad19dTZ2TjefLyRGuFDg4HJRa1W1DyK/L9G8qUJ6vPqsPglOJ0a5MXqlJxw6iLtvEQDUCX8eA8ajTMZMCRD3uBDsSKPI6M/Pcc6tvDNgZxHfL81rZmBNOT59w1NDe5S532cbgWMlKOdZhU4GCFZkxZNs8u2MKJoF6X8+R3r5G0E9+8pMXzz8G5iTDGFmhnSQtdiRQN18qRbv97W+//GY7MCvvfe97F5UJeY6GBKC2x+wuSFy3q9QkmuLm70SgwD9I9klzD7RCEgsJz3G3u91tG6OlX/EyoQ2VpMAd7nCH1TnuWeizKTYWKLXKo6uOhSl9iWzwgFZXS6VVM3tbT7IF1d7HFGkGDskwhp0K1H21zprVt67skz0cUr/GgX0cIvx5yRnGUPObVvlvLFBqs1Ya5+RBD3rQ8pv/QtBsVSlJSU9VY0OVfdTvZvQQxJU5efRrpafaxrNyZIZSXTsR6POf//yFM1N9ZBNujcWKd7/73VfHes7WZzAexuXFL35x7z0/5CEPWY2Z+33Sk560/GYaNhIoB6Aq+zQZirQlICsv3szKBY2hR8q7RtalDpVfmJlZn6NR7T6naqt2SCMwlF+fZ7ipQJ/+9KdvCV2ERbRQTkylLUP526QiTT7PK4GQDqSGQ2aLUYAJfkFy00NEzRA2EmjOPjeUNoxdQTJUNV01dkc5Y2U5IONRBVJf+9rXlt/sA3aGgPI6Bipt7Qte8IItK9WAs8dttcFUgeqT+s6J6PiHPexh3Y9+9KMtXLWG1WpXmL0qtSI9n9VWQIyI01tfQFYG65We8HOf+9wt9zGmxVpMFigmJZ2ES1ziEovPVbXZfpDUWTVBchHpCYNaWQ4zV0CfkC3JpDihJwtTeOUrX7lt28Ntb3vbLXYHt5rps+JaE7xrgktnxv1R5QVxqPuo712Lak64Hyva9671vve9b/nNPijC37jUdaqJd8WrVSVIc9V3UntTw5hegVITb37zm7snPvGJiwel71NNihkJmC1RE5TqTyMkpMBQAZj4sircNUyJwSFo4UtWGXDlFXcNwfGZ19TEkbId3H4DWKtCTGmCpcBVGVhtGRYRiuNaj1RiPkML2ogn6r7dv9KV+g65MOQNY4KkE0v41dhcSXLjyhlM54qGMPExUewq4ffVIm0RqAcwy6y2JL7bhpvEQSZzUo0T84pXvGLUPddHDkw1E8FDFldqlrNp60BDpCfs3iXK5TQz36lZ+QaecAicmk41yLNVhTfkZOGq65ru0/229lHjVBmHIdRYp9NXzbga34z12+YeMu9b2CJQujxVXV/z8FRPm06yquQW19XgCLLbHVh9jVA2qbdho/pU2VAz4NRaTlwrjjYam4wwlBVqm+dc56UaLyU6LQ3KfrPHrc3Ndqtb3WrbxFsJFMGdM80NI8GxH22hVTaxGVZDtiMTy31oYzQ3K1OCWksVrFHj1OkmQPa33KpVxAbpgw/QlynRqO11XHQBsdKaGQLRh0mVQpgSa7Obxs84tkxTNpOQrRVp+NlnVxcCRUsp6KoTCZb9VN7Bs+SFIgja1UvgbEebVO4DhyDpNLNXqkhi2yzVxz3ucY8tKnInG5myD56iOFmWRB/64mG3GoK6XkcYJJicOpdZoLbdvz6MGU2XsTbvtnUM+yAU4r23xXO8dHwxn4TH7Tn4OX1mYSFQM7NWpxnct3PMLMq6ICHDOv42kQ6FGWygW9WmDzdefVi1cqVTkYVf+jDQ7UP7XRhQq4jQN6lcx4rl/k8OWKuZPJeUWfVhZXEypwJFmCyV4vWhYmw7Am5zm9usGLOFQOUk62SqY4hbJcBiUATfm9xkJsJNhh//+MfLb7ZCmWP1YSW1ocEYOFClRai6oe2EVlENmBU2lpRvwRGp1YfK4+33wfMl5blJ4trkr6pA99mWrxSs+qxpgsW/jHJ9qA51aIs4tcIeOc5gUw9TIciuPlxjSE2bTLXKCAfVOBVZljJ1O6HjFbBNhVLPildpkCEnkPpMz7uPIh2CasQyC7SBVdgHckpqERb/UrH1odWTOckEN7xiJzNoaOb0wX6PMvhmeEt5FXKHt75a0mEMybA4d2ibgc+L3mOzJdSnQqhR5/o5ZHuxRnWcScO7nwrXLOeRKRyqyKCBaqw0WPzrAhkX3u52t9ums83ErMpT3tjyuGPgxSXTpC61TYjjMfGfdQyPcWhy9cEkybJLnHIb3KPYsrZJH30s1BAkDLIPhEub6xTfqhSsYzz3UM1TH4xDOkbGvdUE1G0m4mkcWAiU8BRp1ZdWkmIoNpJNMyuxOUlQ76TaO/vAzFznOtdZuPRWjG0Odj+n2y6w3hRc/+yD8KoPP10zWSEExKZAztf57pdQ3b+xwhypPsg+EBlDRMUQ0gHlXBl/2spzCOf00TdW+6zT/wGOM2NB3i71K05MF7yaepohh6APHKqyv9moFH20oYQmphwi0/vAO8wCsmru30rsew6rzXlTYZyS063m/vVRajYb50gl/VQQWmZcqunDWFGzGU8b15LFSqBA8m2AP9bk9aaQxrjYNgsztRFQS3L3YWjCTGkcj3WFXGBy9U2YKY1NR+etA8HkhuB1jTpPO75FoMAO0c3J6Gg8T5QXkrjiKw1rkTWzLaggKaI6noNgY8+tb33rbXwuRkqMSH2Ut6qZ+bYXDMED5UR0LhutpKOdSO7F50xG9iFcG3PylNG4jzreGLhPZEhL2wm7xIZ2EJRHrFlhCJsh9SuOTqaLiaPOpRLbBIRwBvXXesDbBFqwha5ONgiV8ZDFaPdzmLV9qpHNSqEZBIxTsSZsdH1nBhfVx5FpSzitvr5VhIbLAaWKPGgloF2zBIdxqT5kXEyq9AtMqPo+gfxPh04zIcrhcg+pav0OBCfbk+wXDlyY1JIRVHnLELHVFUKKTXNy8mv6MChQM7JOppLSS/Mgyjbre83sTeZIh8l2MOBmcyagzcj6nr3OXCWBKMhKW+E+MpWmgj5XvwnDQ0+azTXLQWnzoY5TBZErVfyKcy4YyFTl7ocHmxULNFQ+aybzsUaIi+TJjYW4tKocaZ8sWNewQ5n0ZtqSoRqy+4MCNSvrZOqsVaseyCytYzRCpbZ4YwRUn8scUD9tNUEKlIpvV7k+UIGp4qkeK8Dqz+S2QZKbbUMh1xyrWHC8wq30GGkVdCgNkoNoNasdTmECAebzpkALSJg0YyYRVcoktTvcmIu2j3Y/61D8u2OBgpUqvKnjNGorVQy2BxPVx9qsEyhglFQh5CriNeaMtwLZ3r5C73UCBStVeU2GGq6f1J3+2cU+hmuKQMFEz2uaREkMaMKVvsLsfUWgoHM2Kwe8GodAxcNQdfsUgYLZ2ldsrVGjVn+q2cQUgQIygNPXlw/Wr9U/RFdOFSgwE7nqq+nDxOWj9GFfEyhgNvoqzQX1Y5gqUODEtJt7NWTF2HaIqQIFjgqioe1DIjzLVlpsIlBgt/P6Gsdy7F0L+6pAZUTSKaiGnGbrhrCJQAXm6QBVc29DHh9sIlCeveu1fbDV6oyHsIlA2ebWAdKoX+zPUBZqXxEoDw7pniyPG0vPlKCHyOWpAkWep82k3rMPIUNffQ1MFagMR9oz108zov8hYmCqQCU31tlQ9KfkdYs9F6gYS5DcBs6yCu27eghLrU6LKQLl8idlx+ESx3n5Ydo7caxsS4spAvVKAefXtcqRk8NMB8/zybm2ifkpArXC8xj3xPYLB1tmiPmSs03sWqDinDq5jUM9kJRbCs2gV4We7zkY+b1V1CarU6AeNmNE15ALzQljcKuawvfqZvN799BWH4zFoWD1Z31QOXIlNMRAFj37XuFXsj0m+1AcCkKWXInGhTDL9sv2tNv91QwlC9TGoUPM2aBAxUd1MhtSfKoyESsk47Y+ntK2BLM8VxG1lblHREReI4kJqz8nhEG3+qsQGQyIVZQD7v/5QmPsUqlOqyLZJsnqPNeEUb2RThbBmVgpdPdVJR9g8idTlH3QGu3qVx3Zpiftdst3OWlejlUbwUySZIqS/EhsEyiP1YzK3KcZjsPl4LRC6lt5BTetKCvVloczw6ngrA436OwHx8TKyzJR5/SpOuCZGtwccEJSvcB2t56xWl0OlpKYFKbV7bM+j1m/VH8Kxv1ZydJm+Na0t9JlbLoJmOcYB5UbrTALVmSOuybrYrFIC2bYphrT560TtUWgiHkVbclvZiPIvHHCXPfyYCvVih5znLJZRdm/PtZVFNQqSsfJ9Yeew3fZv/MMfqrRPtjLkyvR9XOQs7l+ajHPr+q9b0NVQkVfvhV7rOnDhM1wZyVQntXYruW2ySiMvawiYRWxRW0t67rGrk4tErOK2M8c8CnN8UOrvw9WXl+INtY8N9s/Fi8n7DZrEyBjzT7S+qM+K4FiQvIguU5CoKupQInV/B5BvQnM/nbmSRRTlzxAezqSm9U81KZQy5vXkMGgfqlZ9GCb6kJMbAqVFnkNcSUthAUyZvWq9mpWUdr+KeDFpzaU7aHiyYM2aRPgOGZYCJThzZ3Diq4t/YSXKuWNMtibvChYQVO657y4dM3NXpXvuV/GTffxmkNQhJzeotfN5VZFmoJZyf0k9rj6ey5T4X7OsXyBluZ+201Z6qCycN24bfJnsXDS+Rwq+9q/wKS2KX0QiRFYCJSqKpvCTraufcFx5eBQO0MBdB/EeuVMucZQ+geBXXEnlVu5xSkQuJfK5fAMeYIyQtUHp2Wq6QDpu1K57GJffA2ignK6PPcmr30zrkVACJMqHGyhhil9E1j8a3nXhzhFnm4fzMSKhVxok7+mQF1UH4iKthqvYJUV/eZhhBZTwU6VIyIF1qagCoj4ohGptU2KoHP3GfXdx+qAvjNuzM2/62CS1IQzFu2LMAuS36k1YfEv76s+pAqH1Jzipdq4xDMUYkxF9iGeGhIo1VTxloHbZJuC2LW8TjN8qMxU2WVVUogp2aSp4HHXyjMpUqUnZGbSXufm4XXIrSnGwrj3wcLLXCos/jUDOAekbdUNue/eFVChALUzxIv2gTqsmxSaDHmvVnJRdZykTfqQkK5tFARLwH0gwCItCKePMhwCc1SrmzYYWnm84ZpcvNxN1LpnLrUuuS8R3ge8QI2Vn7CPWP8HZi310da6gNSROC/ddReQHptayumddulM8Np4heXKc7AMQglE47wMbWfog2Pz76/RJgL/CuT9NPtLpVcTrg1tN2jhGt7lW+e6X/dNjYPnwbJlDRLnbGjLRAur0biWoKoPk676sOCUxmQNEucOVgJNuCmqRSmEuh7vUyid3jYqAXs09K74REvn4TcxIFxubEsSA1bOJrWsYF9MuyPaNYUySlnkOrOPbCYb+m0KrLZ0RlzT/XsOxIxEQ33X0oRDMH58mTJpbeO82VWgDwJvi+/qnYe9AhXGJGWVjTfshpOFMZsMJK9yLN4yu9tKu6GGWtvEtgkVpjIsmntuKweEVfnO2yHgipOaHGrGykQa0zLGi6ay6nNVGiPjXNHHWJNHLQewV6DY/8xiZNOBij/VdeUcVDNT1cS0qZ+Ejtmd9lzNtfMBzNahNFFCzJwcqMEgrMw9ZmM68Laes31djTrjMTOCeG/LRvsG3fPZIzpUtgL+PrearHbxcAaVoxjnsclPa3ptQe6t6RUoO4q9oarsqaB2c9uaSgQhjFjLzGofiP0QbvQVbQEvOm2M62Ff2GnecKpFb4oeU4XeKNKXpeDoCb4xUPW5+1RknX/YHbmtYDrP5zn2OWPsbBIfnB3eq/t2/7l9UOnnUH2QcRFb5vGa+6PplNAiQJKdU4BtsbD3HFiTxYRs6cRegQJuE5FcDgWPKhO0RTWZgfR3pnY0ep3tlfNsO3UjZZMF3W1oogIvZyZV2u7wAuxJXx4xN/oSTKky9qxPUK6df6VBk0zONJiYL1ezwW9fCCX7UZqNjW3fgWihyCvLxmRpqmb8aK5a0ca3vjPunDkgD3IZ4p4HBdqH/Ltm9LuqhgLbwyFobYvVJpmb9FruFcWDtsVRKvgY/rxOu8XRREmtodEm7XvnpwgUaA1bNHIiCZswQ+xcrnSNM9dqIBOs6oU8X/oACBNJ/1a9Gi/XylcPSF7n4vGKvKnYSKC41rQfvK4Mc6xE8SUXuo6p5jNEBKHky36FGX0pJYLJlw4boHpFDKG0m4Z4mX2szVSBgvCM4GqyaUyD+02bT6X3vcDR83sNXh1HDXteoVPfmFDfKNEcQ/9P587KRfFNxUYCBQ9cNtND9gXlnCLV6Olaa9QQ1ZZxYKnuPliF6YkK6JEbmUhwL/aAWAF92ESgwCNVE5VCzUYVj1VAqlGuY01+uwsyxNHElbJbfc4jAefxY+8i7sPGArUKsgyRQ9JHsVFTbJCMQE2AtrGjgvIx4DX7PGKNHZLGG4uBNxUoWGl9njj7uI7xwbQN5X2NA/vJc+8L74xj/jUJGZRN3sQJGwsU5PzSqI/9DWtGni1pYz7NgA1lEgqMPzqwdSKQ6mbvkCdZ2IlAAUnR7jfVp7znWGUD8r5vAlrZxmEsjHHtOt7zTiEkWuxIoAYx7RvnhJs9BAMg9BD+GNQ6T2P8Bd9jM1EI1MZj+hzKCiV2IlB2bGh7B68co9PafZrLOenMaPhcWkR4NTYRjF86eez00NtoxrAjgYIwJldN68L3gUrJFyhXo4o4OexH8ZVgdbZb8apZBVXSOYadCNRKqXM0jklW7RMSO0uoGkcQr9pnWtj7KbSo69U5Jm+FKZtixwLF+OTLIxh6TswYhCelek2GyitWsyIEzVx4ZD3VnowVlz8dBsnsdQ++qUBN1Kyh5S/w7mWLkqMVbtiULFRrHSjPVZOdqnX+GMSmmZRAdIyp5jHsWKAglZSkPY9ubFMPcr7iVDEeDxkb1QrWajBQVeGg6Ye9RdjnwHIcxjb5bCLQjCO1Nu2Fq87v2+Y5JAA8V61ofZqYQxDL5m51zznlnRJD2JVAeYP5pynM1LHXxaGu6lhEOIjTCIoqHvKGDU5mXtBtad94hkM2eKpA2cD2D9q1uU6eKXtfx2SjcqneIuLzb6Ka6ENAXKR6R6D0xeVTsSuBglmdnKMC4D7P08pFy9VxHKQEgXjwvvhPUJ5/D8zAtn9RV3zbpx2mCNR57W709qWM+ifMPnuuCc/SVuZLoUy4vnvDTmX+Frc7pm2mYNcCBVxu3ZTWVxAlGK8wwABzgBJsptk5lF3gNHHjK03EwxXT1fdWN8K69STXCdTxVmJqBxRixdYEQWW2qpaNZGvzPOWaRXBYrVWxwG/oK6gzBnn+2B+9m4pZBIoGyzCG+mlL9JO/5dhkhYDBo47Ta2Yn28oC9pcQa6OOVZOskeu27wZcJ1DOTvoB/qxGlWWqTNRf2nLNfREygiD/MrFmxREqFV4EA/Xd5nbFufqq84Qpm7wGbwizCBSEFwbMzVlliOhEUmJql0oFebCWiKd6sExSYHKCrRrmEXoXrmsY1Mx7Wg35Mqwxgcp7JuHhOko7XFcYlp6nRjASFEmky6i0VRLMDlOUJTfUdUKdUE1g97VJdeMYZhOo+JGqqgeQnK7yQzZVKq2+K/5WnQ1SvT7XqNasC+Y02aHd9zo25DbPUxlmZnmsmsq6uFapPsfUtdlsq6LOMajiT9fLnGc1/VvNmfEpqPwjxDyeU8RnKJUqj1lEARIhkxy+G3pHxKaYTaCglCJDClkKXp/Pc7OqQaOmcwJoBm0os0D4VmVeX0MwiNvSudCses6TLYq1wglWyo/dzBhaIxDntLSd/rywY2irfIG6zEp2gizNoFHTYlzjkQ4YO2w85sKsAoVMFBsc9jRtlIdUgNZujJKolvheByrTubXqNIPHzuUAWo3UYzpOmt99nivaec5PB8X1lbW0NncMcr7t3ppsxsF45KRhUubE7ALlzSXT0tcMZg6ejE2GJetQLFKbE52rlUe9yd6dgtAFUTDkrWfDdKV5mQOzCzQLpasRXgowG1d/qPp8HXijiO9NtxAONddRtNVuPtoU6rHaHGjfGBinlrzYLWYVKPuUniH7I9FtRzgvmI3KEIDjtI7/XQc2SUVAFj9nU1yl8ExelfPU5/BoPFXX2cmqTNjikYwTbYTG9PzGgR+QGRmeddYu7RazCjRrjqhdTkAC4Zzv1UO2t3HjTkHVqabICcPbbSsG7Z3JMMPx6MspGZEpyIoDz6kyod3Ho7I+nbud7IMdwmwC5YXmJlQF1X1Ad2Xej72ZC4j0KsLieLQTquAVqjXoqLyxl0ptiuSraYehBLz3BtZxqM11XvRUzCZQHGTRY9SMmG0IuZIVms0FxdO1+tUzDdUFt9sJ7fCeC1ngNbbyFMyVNsGFr0uxTcVsAhVylNfJ5R/b4Jrv0zMAc4HnWw4Z2zSkRlGNZesdv5NSjyFk7a7/D4FqLmZNYfeULRhTMJtAkebpmGCAKpWU4EEmS4KQnws72U5oW0TfW6x3ikwnJluWwDZJ5NdxbPrQftlNMatTlC/eoHaVXCKqlZLInZqFuQfFKtrkj/msA6cr6TwDSrVV9t9PnmxOKI7TXIMJPNYsX1Wn67nlOI0D8sF+lCQ2Ni3VHMOsAhVPZrBPnVm1blh+sK38Y0vHCqd2gtxhrWFnsDc8YBXqWWKpwmDohYy7Qfv6drSn/K9xaHeZ8Tum7k2dglkFCu275oda35tW5gD+1t6YTMX1NUwOjravPna3UEDdkvV9TegyV9hWmF2goKyi3RFWje3i2u+UHZoC5ICKwDafWo3K5dlmheHcEO9inVK1ZrNSx8p1doo9ESiIS6mzLFaWjZCc3suBLFDlJo3VWv1blfKcyIa5VX0fPKckufcL1j0wO3bbGZ+9wJ4JFATLuXkHz7tvYyzBvW9BUVuNgTTfXCRCH/ZUoGZhCrTeA7BvYj+Bzoh2hc6dWZiC/w0CzSK6/QS6S+wn0Bmxn0D3wX4CnRH7CXSX4KorClNKySnK2iGJZvwu7nQvB9ZbThAcSkSVxKRA/Y60lw0ae/3ObqG0xHOKiXPfJ+rTuCghVRw2V7VfYXaB4inRbWprbZHLyj7JbRSg720yUgM7N6pklBD1bRLVZig5UJuT63uDO2WP6abA56L09Ifyw0jVGJjgxkXKzPdTtmFugtkFmuS4jEdW/KnZsUr8X95yjtL/FgqfkfL6kOvE3VaO1E+/+9zvcqIKoueGMCW1QtY8GY8aA01RwJyYXaDYoSTAh5oa3LFd3zuFrEa+ZWWseUtJX4pvt8BEta/c6WuEq9ZoTuyJU9T+hYa2jRVUzwFlLlkV0de8+8dxewUVCGNCNenb/S5zYE8EKu9nz2dfeaV9oXuh5lpIuA+tVOmt2sW2l7AHJveJVjMu9rIYp7mxJwIF5Lcyi3xlHPvavi5tLyGhbR9NbetXw2Nf6ZwJ7XVQmpM789ht5Tl7kbaDPRPofvj/ga77f09Xi5aL8rQ3AAAAAElFTkSuQmCC;" parent="1" vertex="1">
          <mxGeometry x="160" y="320" width="56" height="56" as="geometry" />
        </mxCell>
        <mxCell id="tXrnVyFi8xTaEv7xUXBO-1" value="" style="fontColor=#0066CC;verticalAlign=top;verticalLabelPosition=bottom;labelPosition=center;align=center;html=1;outlineConnect=0;fillColor=#CCCCCC;strokeColor=#6881B3;gradientColor=none;gradientDirection=north;strokeWidth=2;shape=mxgraph.networks.supercomputer;" vertex="1" parent="1">
          <mxGeometry x="630" y="298" width="100" height="100" as="geometry" />
        </mxCell>
        <mxCell id="tXrnVyFi8xTaEv7xUXBO-2" value="" style="fontColor=#0066CC;verticalAlign=top;verticalLabelPosition=bottom;labelPosition=center;align=center;html=1;outlineConnect=0;fillColor=#CCCCCC;strokeColor=#6881B3;gradientColor=none;gradientDirection=north;strokeWidth=2;shape=mxgraph.networks.desktop_pc;" vertex="1" parent="1">
          <mxGeometry x="510" y="480" width="30" height="60" as="geometry" />
        </mxCell>
        <mxCell id="tXrnVyFi8xTaEv7xUXBO-3" value="" style="fontColor=#0066CC;verticalAlign=top;verticalLabelPosition=bottom;labelPosition=center;align=center;html=1;outlineConnect=0;fillColor=#CCCCCC;strokeColor=#6881B3;gradientColor=none;gradientDirection=north;strokeWidth=2;shape=mxgraph.networks.satellite_dish;" vertex="1" parent="1">
          <mxGeometry x="250" y="520" width="90" height="100" as="geometry" />
        </mxCell>
        <mxCell id="tXrnVyFi8xTaEv7xUXBO-4" value="" style="fontColor=#0066CC;verticalAlign=top;verticalLabelPosition=bottom;labelPosition=center;align=center;html=1;outlineConnect=0;fillColor=#CCCCCC;strokeColor=#6881B3;gradientColor=none;gradientDirection=north;strokeWidth=2;shape=mxgraph.networks.satellite;" vertex="1" parent="1">
          <mxGeometry x="50" y="510" width="100" height="100" as="geometry" />
        </mxCell>
        <mxCell id="tXrnVyFi8xTaEv7xUXBO-5" value="" style="fontColor=#0066CC;verticalAlign=top;verticalLabelPosition=bottom;labelPosition=center;align=center;html=1;outlineConnect=0;fillColor=#CCCCCC;strokeColor=#6881B3;gradientColor=none;gradientDirection=north;strokeWidth=2;shape=mxgraph.networks.server;" vertex="1" parent="1">
          <mxGeometry x="100" y="390" width="90" height="100" as="geometry" />
        </mxCell>
        <mxCell id="tXrnVyFi8xTaEv7xUXBO-6" value="" style="fontColor=#0066CC;verticalAlign=top;verticalLabelPosition=bottom;labelPosition=center;align=center;html=1;outlineConnect=0;fillColor=#CCCCCC;strokeColor=#6881B3;gradientColor=none;gradientDirection=north;strokeWidth=2;shape=mxgraph.networks.server_storage;" vertex="1" parent="1">
          <mxGeometry x="309" y="398" width="105" height="105" as="geometry" />
        </mxCell>
        <mxCell id="tXrnVyFi8xTaEv7xUXBO-7" value="" style="fontColor=#0066CC;verticalAlign=top;verticalLabelPosition=bottom;labelPosition=center;align=center;html=1;outlineConnect=0;fillColor=#CCCCCC;strokeColor=#6881B3;gradientColor=none;gradientDirection=north;strokeWidth=2;shape=mxgraph.networks.storage;" vertex="1" parent="1">
          <mxGeometry x="340" y="620" width="100" height="100" as="geometry" />
        </mxCell>
      </root>
    </mxGraphModel>
  </diagram>
</mxfile>
